<?xml version="1.0" encoding="UTF-8"?>
<svg version="1.1" xmlns="http://www.w3.org/2000/svg" width="640" height="480">
<path d="M0 0 C2.55875846 -0.00920149 5.11750477 -0.02319719 7.6762085 -0.04229736 C39.07345191 -0.25013744 67.06921643 3.72124627 90.77279663 26.34542847 C100.66270541 36.72300534 107.01457461 49.86856848 111.62826538 63.29855347 C111.84966187 63.93422241 112.07105835 64.56989136 112.29916382 65.224823 C132.23414935 123.75639946 130.40082185 211.7412467 103.56185913 267.68136597 C99.20437586 276.4309386 94.29371974 284.08263071 87.62826538 291.29855347 C86.98244507 292.02429565 86.33662476 292.75003784 85.67123413 293.49777222 C68.57885376 311.773739 43.542313 317.32052823 19.52142334 318.22851562 C10.3230381 318.45119101 1.11544645 318.19175115 -8.08169556 318.00167847 C-11.83713206 317.92426674 -15.59264256 317.85662964 -19.34829712 317.79074097 C-31.390949 317.56941805 -43.42892217 317.26719592 -55.46548462 316.82199097 C-56.49113525 316.78514191 -57.51678589 316.74829285 -58.57351685 316.71032715 C-65.52616101 316.43618837 -72.44248958 315.92774425 -79.37173462 315.29855347 C-79.37173462 311.99855347 -79.37173462 308.69855347 -79.37173462 305.29855347 C-78.15485962 305.07167847 -76.93798462 304.84480347 -75.68423462 304.61105347 C-71.40403262 303.55618099 -69.20346614 301.73095531 -66.37173462 298.29855347 C-65.17879587 295.91267596 -65.24326467 294.45356204 -65.23751354 291.79005814 C-65.23082678 290.3579597 -65.23082678 290.3579597 -65.22400492 288.89692998 C-65.22418929 287.84072855 -65.22437365 286.78452712 -65.2245636 285.69631958 C-65.22088691 284.57995078 -65.21721022 283.46358198 -65.21342212 282.31338382 C-65.20234894 278.54704258 -65.1985353 274.78072889 -65.19473267 271.01437378 C-65.1884708 268.32433913 -65.18183736 265.63430747 -65.17481995 262.9442749 C-65.1550445 254.85305992 -65.14498782 246.76184366 -65.13609216 238.67061055 C-65.1317109 234.86192628 -65.12634366 231.05324341 -65.12110329 227.24456024 C-65.10408969 214.58626723 -65.08959512 201.92797509 -65.08235455 189.26967239 C-65.0804446 185.98372649 -65.07852427 182.69778059 -65.0765686 179.41183472 C-65.07608486 178.59511113 -65.07560112 177.77838755 -65.07510272 176.93691477 C-65.06680096 163.70407239 -65.0414622 150.47132036 -65.00898793 137.23851743 C-64.97593145 123.65793429 -64.95790705 110.07739708 -64.9547103 96.49677348 C-64.95254386 88.86962073 -64.94377571 81.24259973 -64.91824913 73.61548615 C-64.89656133 67.1202844 -64.88848216 60.62524639 -64.89821591 54.13001254 C-64.90276635 50.81577234 -64.89865789 47.50194131 -64.88145447 44.1877327 C-64.86384337 40.59444157 -64.87078952 37.00201263 -64.88398743 33.40872192 C-64.87301818 32.36144338 -64.86204893 31.31416483 -64.85074729 30.23515058 C-64.90372362 24.27646798 -65.40192738 20.84088263 -69.37173462 16.29855347 C-72.44804299 14.14513761 -75.69105928 13.80046374 -79.37173462 13.29855347 C-79.37173462 9.99855347 -79.37173462 6.69855347 -79.37173462 3.29855347 C-74.52461692 2.38080434 -69.71594864 2.00442629 -64.79751587 1.76339722 C-63.94503769 1.72019348 -63.09255951 1.67698975 -62.21424866 1.63247681 C-41.48135535 0.61583497 -20.75813531 0.07210542 0 0 Z M-8.37173462 47.29855347 C-8.37173462 121.21855347 -8.37173462 195.13855347 -8.37173462 271.29855347 C20.93493044 273.97670143 20.93493044 273.97670143 44.56576538 262.56808472 C54.742741 251.36955662 58.27959841 235.63338307 60.87826538 221.11105347 C61.02924683 220.27743286 61.18022827 219.44381226 61.33578491 218.58493042 C64.65990336 198.30855743 64.97918349 177.85810233 64.94393921 157.36618042 C64.93930882 154.45130986 64.94624676 151.53685673 64.96444702 148.62203979 C65.97849374 97.74306193 65.97849374 97.74306193 44.62826538 53.29855347 C42.75061581 51.67976623 42.75061581 51.67976623 40.81576538 50.54855347 C40.21119507 50.16183472 39.60662476 49.77511597 38.98373413 49.37667847 C31.41065342 45.91039277 23.99746746 46.02186681 15.81576538 46.11105347 C14.70394897 46.111698 13.59213257 46.11234253 12.44662476 46.11300659 C5.39663506 46.15013351 -1.28838471 46.65461257 -8.37173462 47.29855347 Z " fill="#1" transform="translate(439.3717346191406,91.70144653320313)"/>
<path d="M0 0 C1.15944794 0.10607144 1.15944794 0.10607144 2.34231907 0.21428573 C10.66675918 0.92223702 18.91130768 1.14172462 27.26292419 1.12698364 C28.65422435 1.12813879 30.0455242 1.12972894 31.43682343 1.13171089 C35.22276209 1.13585018 39.00867525 1.13383817 42.79461396 1.13072467 C46.89217107 1.12844858 50.98972401 1.13196114 55.08728027 1.13470459 C63.09999205 1.13913784 71.11269442 1.13819668 79.12540656 1.13529195 C85.6414722 1.13302814 92.15753522 1.13272963 98.67360115 1.13381577 C100.06784102 1.13404561 100.06784102 1.13404561 101.49024736 1.13428011 C103.37885618 1.13459985 105.267465 1.13492407 107.15607382 1.1352527 C124.84213453 1.13810037 142.52819005 1.13483173 160.21424992 1.12945233 C175.36817767 1.12498568 190.52209777 1.12576047 205.67602539 1.13037109 C223.29980806 1.13573072 240.92358617 1.13782497 258.54736954 1.13475883 C260.42910739 1.1344403 262.31084524 1.13412593 264.19258308 1.13381577 C265.58113361 1.13358435 265.58113361 1.13358435 266.99773566 1.13334826 C273.50052543 1.13248722 280.00331229 1.13393711 286.50610161 1.13629532 C294.43869538 1.13910897 302.37127927 1.13832216 310.30387192 1.13301457 C314.34610907 1.13039852 318.38832978 1.12933671 322.43056679 1.13266373 C326.13965646 1.13567021 329.84871463 1.13396235 333.55780149 1.12868617 C335.51624413 1.1270615 337.474689 1.13028056 339.43312925 1.13374341 C347.66943319 1.11575138 355.7931536 0.68786935 364 0 C371.87740378 32.25019319 371.87740378 32.25019319 375 45.875 C375.20713623 46.76977051 375.41427246 47.66454102 375.62768555 48.58642578 C375.9047937 49.80821533 375.9047937 49.80821533 376.1875 51.0546875 C376.34605469 51.75062012 376.50460937 52.44655273 376.66796875 53.16357422 C377 55 377 55 377 58 C373.7 58.66 370.4 59.32 367 60 C366.56429688 59.38511719 366.12859375 58.77023438 365.6796875 58.13671875 C361.23122702 52.09952238 357.51182399 48.53538239 350 47 C348.05721526 46.90001018 346.11139508 46.85389659 344.16607666 46.84178162 C342.97418228 46.8319928 341.7822879 46.82220398 340.55427551 46.81211853 C339.25020248 46.80636307 337.94612946 46.8006076 336.60253906 46.79467773 C335.21280122 46.78509557 333.82306627 46.77508528 332.43333435 46.76467896 C328.66304883 46.73766052 324.89275084 46.7166344 321.12242222 46.69667697 C317.18126213 46.67479852 313.24014038 46.64741893 309.29901123 46.62062073 C301.83702111 46.57071898 294.37500969 46.52577081 286.91297793 46.48259836 C278.4172537 46.43320447 269.92156793 46.37829432 261.42588091 46.32291877 C243.95062283 46.20913738 226.47532904 46.10228997 209 46 C209.05886002 93.90845458 209.13339121 141.81686247 209.22898628 189.72525859 C209.24025466 195.37925746 209.25139308 201.03325658 209.26245117 206.68725586 C209.2657567 208.37569425 209.2657567 208.37569425 209.269129 210.09824251 C209.30451662 228.33234423 209.32937249 246.5664459 209.35034702 264.80056924 C209.3720974 283.50572583 209.40514057 302.2108378 209.44870156 320.91595644 C209.47523139 332.46116848 209.49291696 344.00632491 209.49934604 355.55156594 C209.50459584 363.46491369 209.5207991 371.37819141 209.54566566 379.29150165 C209.55969461 383.85937906 209.56884625 388.42713106 209.56500816 392.99503136 C209.56160098 397.17684423 209.57194518 401.35838914 209.59323552 405.54014712 C209.59850907 407.05303846 209.59873236 408.5659576 209.59339563 410.07884873 C209.54935344 421.89669879 209.54935344 421.89669879 214.6875 432.3125 C217.97307947 434.71008502 221.02225534 435.20445107 225 436 C225.33 438.64 225.66 441.28 226 444 C196.96 444 167.92 444 138 444 C138.33 441.69 138.66 439.38 139 437 C141.36328125 435.50390625 141.36328125 435.50390625 144.3125 434.5625 C148.336722 432.97577693 150.64057679 431.98675264 152.625 428.0625 C154.83172209 422.74233337 155.12523633 417.14972711 155.1386652 411.45205116 C155.14413964 410.14428172 155.14961409 408.83651227 155.15525442 407.48911345 C155.15633051 406.0447138 155.15731522 404.60031408 155.15821838 403.15591431 C155.16278625 401.61630894 155.1677866 400.0767048 155.17318195 398.5371021 C155.18674691 394.30927544 155.19417666 390.08145681 155.20060861 385.85361409 C155.20861976 381.29334018 155.22231509 376.73308295 155.23532104 372.17282104 C155.25707363 364.27279813 155.27522258 356.37277352 155.29092598 348.47273636 C155.31363568 337.05059953 155.341777 325.62848118 155.37124526 314.20636003 C155.41890766 295.67485364 155.46217551 277.1433397 155.50268555 258.61181641 C155.54204735 240.6098573 155.58347522 222.60790491 155.62768555 204.60595703 C155.63177196 202.94157801 155.63177196 202.94157801 155.63594092 201.24357517 C155.64962051 195.67712439 155.66334076 190.1106737 155.67708123 184.54422307 C155.79102477 138.36282938 155.89783883 92.18142116 156 46 C137.77121457 46.0606041 119.54258303 46.13815306 101.31395817 46.23571491 C92.84953623 46.28062515 84.38515592 46.32005076 75.9206543 46.34643555 C68.54050483 46.36945434 61.16048762 46.40289556 53.78044313 46.44870156 C49.87500754 46.4725816 45.9697025 46.49134448 42.06419563 46.49761391 C38.3828354 46.50368852 34.70180899 46.52377325 31.02057266 46.55427551 C29.03636314 46.56716398 27.05207547 46.56549232 25.06782532 46.5632782 C16.89560656 46.64875304 9.61038004 47.01751214 3.125 52.375 C1.14307331 54.82326238 -0.49852142 57.23411841 -2 60 C-5.3 59.34 -8.6 58.68 -12 58 C-11.41009946 50.6453196 -10.18833599 43.69868359 -8.49609375 36.5234375 C-8.2533522 35.47217682 -8.01061066 34.42091614 -7.76051331 33.33779907 C-6.99198161 30.01548754 -6.21489221 26.69524815 -5.4375 23.375 C-4.91154005 21.10820494 -4.3861439 18.84127899 -3.86132812 16.57421875 C-2.58073128 11.04794826 -1.29261786 5.52346943 0 0 Z " fill="#1" transform="translate(128,18)"/>
<path d="M0 0 C1.35901663 0.01680467 2.71808811 0.0296071 4.07717896 0.03858948 C7.63953512 0.07281371 11.19854216 0.16107744 14.75958252 0.26092529 C18.39915656 0.35330955 22.03927675 0.39416353 25.6796875 0.43945312 C32.81125895 0.53572393 39.94056613 0.68914241 47.0703125 0.87890625 C47.0703125 4.17890625 47.0703125 7.47890625 47.0703125 10.87890625 C44.9665625 11.43578125 44.9665625 11.43578125 42.8203125 12.00390625 C39.2347955 13.19907858 38.14491886 13.79310893 35.5703125 16.75390625 C32.83800104 22.4462218 32.92543158 27.80706089 32.93659973 33.99945068 C32.9332014 35.38065798 32.9332014 35.38065798 32.92973441 36.78976846 C32.92340234 39.87645994 32.92422327 42.96310743 32.92504883 46.04980469 C32.92205682 48.26251278 32.91865419 50.47522036 32.91487122 52.68792725 C32.90603062 58.70044319 32.90369306 64.71294491 32.90305543 70.72546673 C32.90210602 75.74523387 32.89842728 80.7649977 32.89488333 85.78476357 C32.88720358 96.95298626 32.88421473 108.12120368 32.88488869 119.28942844 C32.88494862 120.29423265 32.88494862 120.29423265 32.88500977 121.31933594 C32.88507109 122.32537189 32.88507109 122.32537189 32.88513365 123.35173181 C32.8855399 134.21557973 32.87597532 145.07939295 32.8618714 155.94323084 C32.84749309 167.10682583 32.840785 178.27040814 32.84146518 189.43401361 C32.84172005 195.69798602 32.83887459 201.96191919 32.82828712 208.22588348 C32.81859838 214.11917292 32.81853236 220.01238564 32.82580376 225.9056778 C32.82684867 228.06595471 32.82449223 230.22623643 32.8184433 232.38650513 C32.81070722 235.34123562 32.81537899 238.29570229 32.82307434 241.25042725 C32.81793078 242.10015539 32.81278721 242.94988353 32.80748779 243.82536101 C32.85556906 252.21129345 33.90402058 259.5266304 39.2890625 266.15234375 C45.30961915 271.98805875 52.97747931 273.26711875 61.05859375 273.1484375 C68.27995758 272.50216759 74.19325409 270.3513988 79.1328125 264.94140625 C84.98718678 257.38241703 85.21980144 249.55067188 85.20161438 240.31661987 C85.20373009 239.36032531 85.20584581 238.40403075 85.20802563 237.41875756 C85.21401187 234.21779947 85.21302645 231.01688097 85.2121582 227.81591797 C85.21519065 225.519261 85.21871234 223.22260463 85.22268677 220.9259491 C85.23057017 215.98072111 85.23571861 211.03550033 85.23897743 206.09026718 C85.24489371 198.26491851 85.2614404 190.43961518 85.28031921 182.61428833 C85.28667551 179.93366058 85.29298404 177.25303272 85.29929638 174.57240486 C85.30088014 173.90251766 85.3024639 173.23263047 85.30409566 172.54244366 C85.32202046 164.9225046 85.33825183 157.30256251 85.35327148 149.68261719 C85.35533529 148.63823658 85.35533529 148.63823658 85.35744079 147.57275738 C85.37935134 136.30039231 85.39012291 125.02803847 85.39764223 113.75565587 C85.40572917 102.16594911 85.42933322 90.57634342 85.4655959 78.98669064 C85.48533464 72.48618749 85.49776827 65.98585226 85.49276161 59.48531723 C85.48810668 53.36700989 85.50196731 47.24902061 85.52977371 41.13077736 C85.53667109 38.89114361 85.5368278 36.65147687 85.52957344 34.41184425 C85.46351048 11.71583338 85.46351048 11.71583338 90.0703125 2.87890625 C92.0703125 0.87890625 92.0703125 0.87890625 94.74050903 0.63839722 C95.87302094 0.64283844 97.00553284 0.64727966 98.17236328 0.65185547 C99.45354034 0.65200653 100.73471741 0.65215759 102.05471802 0.65231323 C103.45835524 0.6625273 104.8619909 0.6729593 106.265625 0.68359375 C107.69766035 0.68732334 109.12969825 0.69017056 110.56173706 0.69216919 C114.33309967 0.69980998 118.10430854 0.71946217 121.87561035 0.74157715 C125.72304199 0.76202606 129.57049844 0.77116885 133.41796875 0.78125 C140.96882014 0.80270775 148.51954479 0.83684893 156.0703125 0.87890625 C156.0703125 4.17890625 156.0703125 7.47890625 156.0703125 10.87890625 C154.8328125 11.29140625 153.5953125 11.70390625 152.3203125 12.12890625 C148.75958209 13.46496793 146.4574261 14.82340084 144.0703125 17.87890625 C143.11579735 20.74245169 142.94253394 22.52344059 142.93609142 25.49483204 C142.92940466 26.92469196 142.92940466 26.92469196 142.92258281 28.38343793 C142.92276717 29.43283557 142.92295153 30.48223322 142.92314148 31.56343079 C142.91946479 32.67657046 142.9157881 33.78971013 142.912 34.93658131 C142.90094096 38.68599696 142.89711558 42.43538492 142.89331055 46.18481445 C142.88704767 48.86514451 142.88041402 51.54547159 142.87339783 54.22579956 C142.8536362 62.28248458 142.84356823 70.33917086 142.83467004 78.39587405 C142.83028721 82.18911511 142.82492044 85.98235476 142.81968117 89.77559471 C142.80267026 102.38331595 142.78817528 114.99103632 142.78093243 127.59876728 C142.77902251 130.87045098 142.77710218 134.14213468 142.77514648 137.41381836 C142.77466274 138.22698582 142.774179 139.04015329 142.7736806 139.87796219 C142.76537724 153.05577569 142.74003457 166.2334985 142.70756581 179.41127238 C142.6745095 192.9376466 142.65648502 206.4639747 142.65328819 219.99038953 C142.65112191 227.58622848 142.64235604 235.18193514 142.61682701 242.77773476 C142.5951396 249.2454641 142.58705991 255.713029 142.59679379 262.18079058 C142.60134411 265.48086149 142.59723623 268.7805215 142.58003235 272.08056068 C142.56242078 275.65847281 142.56936758 279.23551908 142.58256531 282.81343079 C142.57159606 283.85613626 142.56062682 284.89884174 142.54932517 285.97314435 C142.60236387 291.91349873 143.06397329 295.38097548 147.0703125 299.87890625 C150.46209538 301.9281084 153.21173904 302.91426288 157.0703125 303.87890625 C157.0703125 306.84890625 157.0703125 309.81890625 157.0703125 312.87890625 C150.39523867 314.30600642 143.86289503 315.32726445 137.06640625 315.9140625 C136.1442482 315.99764511 135.22209015 316.08122772 134.27198792 316.16734314 C132.33186458 316.34208152 130.39150485 316.51421324 128.45092773 316.68383789 C125.53896541 316.93867989 122.62787081 317.20201944 119.71679688 317.46679688 C102.24971811 319.03858653 84.89232705 320.09833929 67.35009766 320.17407227 C65.49683011 320.18562874 63.64359679 320.20613799 61.79052734 320.2355957 C31.16255716 320.71862713 4.24822868 310.43167899 -18.05834961 289.14331055 C-18.86091187 288.36274292 -18.86091187 288.36274292 -19.6796875 287.56640625 C-20.19345947 287.07503174 -20.70723145 286.58365723 -21.23657227 286.07739258 C-24.17916903 283.1156717 -25.85660114 281.09964352 -25.9296875 276.87890625 C-25.62443182 275.53468464 -25.29437727 274.19600848 -24.94876003 272.8615942 C-23.76789885 267.68529389 -23.64879597 262.74061833 -23.67140198 257.4488678 C-23.66772627 256.43551265 -23.66405057 255.4221575 -23.66026348 254.37809461 C-23.65032937 251.00209238 -23.65442515 247.62625635 -23.65844727 244.25024414 C-23.65405762 241.82182135 -23.6487546 239.39340006 -23.64260864 236.96498108 C-23.63112688 231.74478165 -23.62545759 226.52460999 -23.62472725 221.30439949 C-23.62339748 213.74608058 -23.60824987 206.18783516 -23.58923208 198.62954228 C-23.55843193 186.3504494 -23.53424729 174.07135466 -23.51635742 161.79223633 C-23.51528474 161.05827648 -23.51421206 160.32431664 -23.51310688 159.56811558 C-23.50128753 151.38018987 -23.49108087 143.19226341 -23.48266602 135.0043335 C-23.47959194 132.0348714 -23.47650317 129.06540932 -23.47338867 126.09594727 C-23.47262333 125.36319091 -23.47185799 124.63043455 -23.47106946 123.87547345 C-23.45797162 111.64159502 -23.43331159 99.40776995 -23.39964527 87.17393106 C-23.37940123 79.63799847 -23.36905951 72.10218015 -23.37163448 64.56622016 C-23.37279531 58.78839566 -23.358601 53.01068766 -23.33882523 47.23290062 C-23.33323378 44.8682533 -23.33273304 42.50358749 -23.33776283 40.1389389 C-23.34392053 36.90439952 -23.3316426 33.67041919 -23.31495667 30.43592834 C-23.32116848 29.50624066 -23.3273803 28.57655297 -23.33378035 27.61869293 C-23.25157508 18.83906381 -21.21367612 9.81991641 -16.01898193 2.59085083 C-11.49021129 -1.11997338 -5.55922148 -0.19813401 0 0 Z " fill="#1" transform="translate(103.9296875,94.12109375)"/>
</svg>
